# xmcd
#
# Track frame offsets: 
#        150
#        16310
#        31864
#        44484
#        59019
#        74900
#        88491
#        102544
#        117454
#        130549
#        144386
#        156565
#        170149
#
# Disc length: 2460 seconds
#
# Revision: 0
# Processed by: cddbd v1.5.2PL0 Copyright (c) Steve Scherf et al.
# Submitted via: ExactAudioCopy v0.95b4
#
DISCID=cb099a0d
DTITLE=GORD BAMFORD - IS IT FRIDAY YET
DYEAR=2012
DGENRE=COUNTRY
TTITLE0=MUST BE A WOMAN
TTITLE1=DISAPPEARING TAIL LIGHTS
TTITLE2=FARM GIRL STRONG
TTITLE3=LEANING ON A LONESOME SONG
TTITLE4=YOU MAKE IT BETTER
TTITLE5=IS IT FRIDAY YET
TTITLE6=I CALL IT COUNTRY
TTITLE7=NOTHNG HURTS AS BAD AS A BROKEN HEART
TTITLE8=SHE MAKES ME LOOK GOOD
TTITLE9=ON MY BEST DAYS
TTITLE10=NOW THAT YOUR GONE
TTITLE11=SING ANOTHER SONG ABOUT LOVE
TTITLE12=A COWBOY'S LAST RIDE
EXTD=
EXTT0=
EXTT1=
EXTT2=
EXTT3=
EXTT4=
EXTT5=
EXTT6=
EXTT7=
EXTT8=
EXTT9=
EXTT10=
EXTT11=
EXTT12=
PLAYORDER=
